<svg width="119" height="124" viewBox="0 0 119 124" fill="none" xmlns="http://www.w3.org/2000/svg">
<path d="M115.5 62C115.5 94.4458 90.2936 120.5 59.5 120.5C28.7064 120.5 3.5 94.4458 3.5 62C3.5 29.5542 28.7064 3.5 59.5 3.5C90.2936 3.5 115.5 29.5542 115.5 62Z" stroke="black" stroke-width="7"/>
<path d="M35.1716 59.1716C33.6095 60.7337 33.6095 63.2663 35.1716 64.8284L60.6274 90.2843C62.1895 91.8464 64.7222 91.8464 66.2843 90.2843C67.8464 88.7222 67.8464 86.1895 66.2843 84.6274L43.6569 62L66.2843 39.3726C67.8464 37.8105 67.8464 35.2778 66.2843 33.7157C64.7222 32.1536 62.1895 32.1536 60.6274 33.7157L35.1716 59.1716ZM82.2832 58L38 58V66H82.2832V58Z" fill="black"/>
</svg>
