<svg width="119" height="124" viewBox="0 0 119 124" fill="none" xmlns="http://www.w3.org/2000/svg">
<path d="M115.5 62C115.5 94.4458 90.2936 120.5 59.5 120.5C28.7064 120.5 3.5 94.4458 3.5 62C3.5 29.5542 28.7064 3.5 59.5 3.5C90.2936 3.5 115.5 29.5542 115.5 62Z" stroke="black" stroke-width="7"/>
<path d="M85.1116 64.8284C86.6737 63.2663 86.6737 60.7337 85.1116 59.1716L59.6558 33.7157C58.0937 32.1536 55.561 32.1536 53.9989 33.7157C52.4368 35.2778 52.4368 37.8105 53.9989 39.3726L76.6263 62L53.9989 84.6274C52.4368 86.1895 52.4368 88.7222 53.9989 90.2843C55.561 91.8464 58.0937 91.8464 59.6558 90.2843L85.1116 64.8284ZM38 66H82.2832V58H38V66Z" fill="black"/>
</svg>
